<svg width="48" height="41" viewBox="0 0 48 41" fill="none" xmlns="http://www.w3.org/2000/svg">
<path d="M0.53118 27.8339C0.184995 24.1775 0.00562745 13.2252 0.00562745 13.2252C0.00562745 13.2252 -0.271347 10.8373 3.06097 7.9608C6.39329 5.08434 11.3271 1.50592 11.3271 1.50592C11.3271 1.50592 15.4915 -1.88185 19.9263 1.50592C24.361 4.89369 28.4858 7.9608 28.4858 7.9608C28.4858 7.9608 31.3655 10.9697 31.396 13.2252C31.4266 15.4806 30.9309 27.8339 30.9309 27.8339C30.9309 27.8339 29.9577 31.7376 26.2991 31.8501C22.6404 31.9625 4.82902 31.8501 4.82902 31.8501C4.82902 31.8501 0.877495 31.4903 0.53118 27.8339Z" fill="#62C247"/>
<path d="M9.22108 34.969C8.78615 30.3753 8.56079 16.6152 8.56079 16.6152C8.56079 16.6152 8.21258 13.6151 12.3991 10.0013C16.5857 6.38738 22.7843 1.89164 22.7843 1.89164C22.7843 1.89164 28.0163 -2.36455 33.5879 1.89164C39.1596 6.14783 44.3418 10.0013 44.3418 10.0013C44.3418 10.0013 47.9598 13.7815 47.9981 16.6152C48.0365 19.4489 47.4137 34.969 47.4137 34.969C47.4137 34.969 46.1909 39.8736 41.5944 40.0148C36.9978 40.1561 14.6202 40.0148 14.6202 40.0148C14.6202 40.0148 9.65605 39.563 9.22108 34.969Z" fill="url(#paint0_radial_1_1284)"/>
<g opacity="0.798">
<path d="M28.2768 30.286C27.5289 30.2851 26.8118 29.9876 26.2829 29.4587C25.754 28.9298 25.4564 28.2127 25.4556 27.4648V25.051H23.0733C22.7019 25.0525 22.3338 24.9806 21.9902 24.8395C21.6467 24.6984 21.3344 24.4908 21.0712 24.2287C20.8081 23.9665 20.5993 23.655 20.4568 23.312C20.3143 22.969 20.241 22.6013 20.241 22.2298C20.241 21.8584 20.3143 21.4907 20.4568 21.1476C20.5993 20.8046 20.8081 20.4931 21.0712 20.231C21.3344 19.9689 21.6467 19.7613 21.9902 19.6202C22.3338 19.4791 22.7019 19.4072 23.0733 19.4086H25.4557V17.0576C25.4586 16.3113 25.7571 15.5966 26.2859 15.0699C26.8146 14.5432 27.5305 14.2475 28.2769 14.2475C29.0232 14.2475 29.7391 14.5432 30.2678 15.0699C30.7966 15.5966 31.0951 16.3113 31.0981 17.0576V19.4086H33.4804C34.2284 19.4095 34.9455 19.707 35.4744 20.2359C36.0033 20.7648 36.3008 21.4819 36.3017 22.2299C36.3017 22.3961 36.2356 22.5556 36.118 22.6732C36.0005 22.7907 35.841 22.8568 35.6747 22.8568C35.5085 22.8568 35.349 22.7907 35.2314 22.6732C35.1138 22.5556 35.0478 22.3961 35.0478 22.2299C35.0473 21.8143 34.8821 21.4159 34.5882 21.1221C34.2944 20.8283 33.896 20.663 33.4805 20.6625H30.4713C30.3051 20.6625 30.1457 20.5965 30.0282 20.4789C29.9106 20.3614 29.8446 20.202 29.8446 20.0358V17.0576C29.8457 16.8511 29.8059 16.6464 29.7277 16.4553C29.6494 16.2642 29.5341 16.0904 29.3885 15.944C29.2428 15.7976 29.0697 15.6814 28.879 15.6021C28.6883 15.5228 28.4838 15.482 28.2772 15.482C28.0707 15.482 27.8662 15.5228 27.6755 15.6021C27.4848 15.6814 27.3117 15.7976 27.166 15.944C27.0204 16.0904 26.9051 16.2642 26.8268 16.4553C26.7486 16.6464 26.7088 16.8511 26.7099 17.0576V20.0356C26.7099 20.2018 26.6439 20.3612 26.5263 20.4788C26.4088 20.5963 26.2494 20.6623 26.0832 20.6623H23.0733C22.8668 20.6612 22.6621 20.701 22.4709 20.7793C22.2798 20.8575 22.1061 20.9728 21.9596 21.1185C21.8132 21.2641 21.697 21.4373 21.6178 21.628C21.5385 21.8187 21.4977 22.0231 21.4977 22.2297C21.4977 22.4362 21.5385 22.6407 21.6178 22.8314C21.697 23.0221 21.8132 23.1952 21.9596 23.3409C22.1061 23.4865 22.2798 23.6018 22.4709 23.6801C22.6621 23.7584 22.8668 23.7981 23.0733 23.797H26.0826C26.2488 23.797 26.4082 23.863 26.5257 23.9806C26.6433 24.0981 26.7093 24.2575 26.7093 24.4237V27.4644C26.7115 27.8786 26.8776 28.2752 27.1713 28.5673C27.465 28.8595 27.8624 29.0235 28.2766 29.0235C28.6909 29.0235 29.0883 28.8595 29.382 28.5673C29.6757 28.2752 29.8418 27.8786 29.844 27.4644V24.4241C29.844 24.2579 29.91 24.0984 30.0276 23.9808C30.1452 23.8633 30.3046 23.7972 30.4709 23.7972C30.6372 23.7972 30.7966 23.8633 30.9142 23.9808C31.0318 24.0984 31.0978 24.2579 31.0978 24.4241V27.4648C31.097 28.2127 30.7995 28.9298 30.2707 29.4587C29.7418 29.9876 29.0248 30.2851 28.2768 30.286Z" fill="white"/>
<path d="M33.4805 25.0511H32.916C32.7497 25.0511 32.5903 24.985 32.4727 24.8674C32.3551 24.7498 32.2891 24.5904 32.2891 24.4241C32.2891 24.2578 32.3551 24.0984 32.4727 23.9808C32.5903 23.8632 32.7497 23.7971 32.916 23.7971H33.4803C33.6963 23.7958 33.9097 23.7497 34.107 23.6615C34.1824 23.6286 34.2636 23.6108 34.3459 23.6092C34.4282 23.6076 34.5101 23.6222 34.5867 23.6523C34.6634 23.6823 34.7333 23.7271 34.7927 23.7842C34.852 23.8413 34.8995 23.9095 34.9325 23.9849C34.9654 24.0604 34.9832 24.1416 34.9848 24.2239C34.9864 24.3062 34.9718 24.388 34.9417 24.4647C34.9117 24.5413 34.8669 24.6113 34.8098 24.6706C34.7527 24.7299 34.6845 24.7774 34.6091 24.8104C34.2536 24.968 33.8693 25.0499 33.4805 25.0511Z" fill="white"/>
</g>
<defs>
<radialGradient id="paint0_radial_1_1284" cx="0" cy="0" r="1" gradientUnits="userSpaceOnUse" gradientTransform="translate(28.2768 20.0388) scale(19.7231 20.0388)">
<stop stop-color="#62C247" stop-opacity="0.7"/>
<stop offset="1" stop-color="#9DD08E"/>
</radialGradient>
</defs>
</svg>
