<svg width="118" height="18" viewBox="0 0 118 18" fill="none" xmlns="http://www.w3.org/2000/svg">
<path d="M30.228 4.27H27.05V14H30.228C33.35 14 35.394 12.166 35.394 9.17C35.394 6.16 33.35 4.27 30.228 4.27ZM28.646 12.698V5.572H30.228C32.524 5.572 33.756 6.944 33.756 9.17C33.756 11.382 32.524 12.698 30.228 12.698H28.646ZM40.2238 7.504C41.4138 7.504 42.3518 8.26 42.3798 9.45H38.1098C38.2778 8.232 39.1458 7.504 40.2238 7.504ZM43.8358 11.704H42.1138C41.8198 12.306 41.2738 12.782 40.2938 12.782C39.1178 12.782 38.2078 12.012 38.0958 10.738H43.9898C44.0318 10.472 44.0458 10.22 44.0458 9.954C44.0458 7.686 42.4918 6.16 40.2938 6.16C38.0118 6.16 36.4438 7.714 36.4438 10.136C36.4438 12.558 38.0818 14.126 40.2938 14.126C42.1838 14.126 43.4018 13.048 43.8358 11.704ZM45.0844 10.136C45.0844 12.558 46.6524 14.126 48.8644 14.126C50.7544 14.126 51.9864 13.076 52.4204 11.564H50.6984C50.4044 12.362 49.8164 12.782 48.8644 12.782C47.5764 12.782 46.7224 11.83 46.7224 10.136C46.7224 8.456 47.5764 7.504 48.8644 7.504C49.8164 7.504 50.4324 7.98 50.6984 8.722H52.4204C51.9864 7.098 50.7544 6.16 48.8644 6.16C46.6524 6.16 45.0844 7.728 45.0844 10.136ZM61.3609 10.136C61.3609 7.714 59.6249 6.16 57.4269 6.16C55.2289 6.16 53.4929 7.714 53.4929 10.136C53.4929 12.558 55.1589 14.126 57.3569 14.126C59.5689 14.126 61.3609 12.558 61.3609 10.136ZM55.1169 10.136C55.1169 8.386 56.1949 7.546 57.3989 7.546C58.5889 7.546 59.7229 8.386 59.7229 10.136C59.7229 11.886 58.5469 12.74 57.3569 12.74C56.1529 12.74 55.1169 11.886 55.1169 10.136ZM68.4127 14H69.9947V9.45C69.9947 7.294 68.6367 6.16 66.8307 6.16C65.9067 6.16 65.0527 6.538 64.5347 7.168V6.286H62.9387V14H64.5347V9.688C64.5347 8.274 65.3047 7.546 66.4807 7.546C67.6427 7.546 68.4127 8.274 68.4127 9.688V14ZM77.5045 14H79.0865V9.45C79.0865 7.294 77.7285 6.16 75.9225 6.16C74.9985 6.16 74.1445 6.538 73.6265 7.168V6.286H72.0305V14H73.6265V9.688C73.6265 8.274 74.3965 7.546 75.5725 7.546C76.7345 7.546 77.5045 8.274 77.5045 9.688V14ZM84.3703 7.504C85.5603 7.504 86.4983 8.26 86.5263 9.45H82.2563C82.4243 8.232 83.2923 7.504 84.3703 7.504ZM87.9823 11.704H86.2603C85.9663 12.306 85.4203 12.782 84.4403 12.782C83.2643 12.782 82.3543 12.012 82.2423 10.738H88.1363C88.1783 10.472 88.1923 10.22 88.1923 9.954C88.1923 7.686 86.6383 6.16 84.4403 6.16C82.1583 6.16 80.5903 7.714 80.5903 10.136C80.5903 12.558 82.2283 14.126 84.4403 14.126C86.3303 14.126 87.5483 13.048 87.9823 11.704ZM93.7529 14H95.5589L93.0669 10.094L95.5589 6.286H93.8929L92.3249 8.904L90.6589 6.286H88.8529L91.3449 10.206L88.8529 14H90.5189L92.0869 11.382L93.7529 14ZM96.7492 14H98.3452V6.286H96.7492V14ZM97.5612 5.264C98.1212 5.264 98.5692 4.816 98.5692 4.242C98.5692 3.668 98.1212 3.22 97.5612 3.22C96.9872 3.22 96.5392 3.668 96.5392 4.242C96.5392 4.816 96.9872 5.264 97.5612 5.264ZM107.791 10.136C107.791 7.714 106.055 6.16 103.857 6.16C101.659 6.16 99.9226 7.714 99.9226 10.136C99.9226 12.558 101.589 14.126 103.787 14.126C105.999 14.126 107.791 12.558 107.791 10.136ZM101.547 10.136C101.547 8.386 102.625 7.546 103.829 7.546C105.019 7.546 106.153 8.386 106.153 10.136C106.153 11.886 104.977 12.74 103.787 12.74C102.583 12.74 101.547 11.886 101.547 10.136ZM114.842 14H116.424V9.45C116.424 7.294 115.066 6.16 113.26 6.16C112.336 6.16 111.482 6.538 110.964 7.168V6.286H109.368V14H110.964V9.688C110.964 8.274 111.734 7.546 112.91 7.546C114.072 7.546 114.842 8.274 114.842 9.688V14Z" fill="#636E72"/>
<g clip-path="url(#clip0_1_1278)">
<path d="M8.607 6.75C8.40809 6.75 8.21732 6.67098 8.07667 6.53033C7.93602 6.38968 7.857 6.19891 7.857 6V3.75C7.857 3.15326 7.61995 2.58097 7.19799 2.15901C6.77603 1.73705 6.20374 1.5 5.607 1.5H3.75C3.15326 1.5 2.58097 1.73705 2.15901 2.15901C1.73705 2.58097 1.5 3.15326 1.5 3.75V14.25C1.5 14.8467 1.73705 15.419 2.15901 15.841C2.58097 16.2629 3.15326 16.5 3.75 16.5H5.607C6.20374 16.5 6.77603 16.2629 7.19799 15.841C7.61995 15.419 7.857 14.8467 7.857 14.25V12C7.857 11.8011 7.93602 11.6103 8.07667 11.4697C8.21732 11.329 8.40809 11.25 8.607 11.25C8.80591 11.25 8.99668 11.329 9.13733 11.4697C9.27798 11.6103 9.357 11.8011 9.357 12V14.25C9.35581 15.2442 8.96034 16.1973 8.25734 16.9003C7.55433 17.6033 6.6012 17.9988 5.607 18H3.75C2.7558 17.9988 1.80267 17.6033 1.09967 16.9003C0.396662 16.1973 0.00119089 15.2442 0 14.25L0 3.75C0.00119089 2.7558 0.396662 1.80267 1.09967 1.09966C1.80267 0.39666 2.7558 0.00119019 3.75 0H5.607C6.6012 0.00119019 7.55433 0.39666 8.25734 1.09966C8.96034 1.80267 9.35581 2.7558 9.357 3.75V6C9.357 6.19891 9.27798 6.38968 9.13733 6.53033C8.99668 6.67098 8.80591 6.75 8.607 6.75Z" fill="#636E72"/>
<path d="M17.1503 10.5908L13.7108 14.0303C13.6416 14.1019 13.5588 14.1591 13.4673 14.1984C13.3758 14.2377 13.2774 14.2584 13.1778 14.2592C13.0782 14.2601 12.9795 14.2411 12.8873 14.2034C12.7951 14.1657 12.7114 14.11 12.641 14.0396C12.5705 13.9692 12.5148 13.8854 12.4771 13.7933C12.4394 13.7011 12.4204 13.6023 12.4213 13.5028C12.4222 13.4032 12.4429 13.3048 12.4822 13.2133C12.5215 13.1218 12.5786 13.039 12.6503 12.9698L15.8468 9.77256L4.5 9.75006C4.30109 9.75006 4.11032 9.67104 3.96967 9.53039C3.82902 9.38974 3.75 9.19897 3.75 9.00006C3.75 8.80115 3.82902 8.61038 3.96967 8.46973C4.11032 8.32908 4.30109 8.25006 4.5 8.25006L15.891 8.27331L12.6488 5.03031C12.5771 4.96113 12.52 4.87837 12.4807 4.78686C12.4414 4.69536 12.4207 4.59695 12.4198 4.49736C12.4189 4.39778 12.4379 4.29902 12.4756 4.20685C12.5133 4.11467 12.569 4.03093 12.6395 3.96052C12.7099 3.8901 12.7936 3.8344 12.8858 3.79669C12.978 3.75898 13.0767 3.74001 13.1763 3.74087C13.2759 3.74174 13.3743 3.76243 13.4658 3.80174C13.5573 3.84104 13.6401 3.89818 13.7092 3.96981L17.1488 7.40931C17.5708 7.83105 17.808 8.40313 17.8083 8.99975C17.8086 9.59637 17.5719 10.1687 17.1503 10.5908Z" fill="#636E72"/>
</g>
<defs>
<clipPath id="clip0_1_1278">
<rect width="18" height="18" fill="white" transform="matrix(1 0 0 -1 0 18)"/>
</clipPath>
</defs>
</svg>
