<svg width="83" height="20" viewBox="0 0 83 20" fill="none" xmlns="http://www.w3.org/2000/svg">
<path d="M32.216 8.182C32.216 9.148 31.656 9.834 30.41 9.834H28.646V6.572H30.41C31.656 6.572 32.216 7.202 32.216 8.182ZM27.05 5.27V15H28.646V11.108H29.864L32.104 15H34.008L31.6 10.968C33.238 10.562 33.854 9.33 33.854 8.182C33.854 6.6 32.72 5.27 30.41 5.27H27.05ZM39.1437 8.504C40.3337 8.504 41.2717 9.26 41.2997 10.45H37.0297C37.1977 9.232 38.0657 8.504 39.1437 8.504ZM42.7557 12.704H41.0337C40.7397 13.306 40.1937 13.782 39.2137 13.782C38.0377 13.782 37.1277 13.012 37.0157 11.738H42.9097C42.9517 11.472 42.9657 11.22 42.9657 10.954C42.9657 8.686 41.4117 7.16 39.2137 7.16C36.9317 7.16 35.3637 8.714 35.3637 11.136C35.3637 13.558 37.0017 15.126 39.2137 15.126C41.1037 15.126 42.3217 14.048 42.7557 12.704ZM44.7883 12.858C44.7883 14.426 45.6423 15 47.0143 15H48.2743V13.67H47.2943C46.6223 13.67 46.3983 13.432 46.3983 12.858V8.588H48.2743V7.286H46.3983V5.368H44.7883V7.286H43.8783V8.588H44.7883V12.858ZM57.0953 11.136C57.0953 8.714 55.3593 7.16 53.1613 7.16C50.9633 7.16 49.2273 8.714 49.2273 11.136C49.2273 13.558 50.8933 15.126 53.0913 15.126C55.3033 15.126 57.0953 13.558 57.0953 11.136ZM50.8513 11.136C50.8513 9.386 51.9293 8.546 53.1333 8.546C54.3233 8.546 55.4573 9.386 55.4573 11.136C55.4573 12.886 54.2813 13.74 53.0913 13.74C51.8873 13.74 50.8513 12.886 50.8513 11.136ZM65.659 7.286H64.063V11.584C64.063 12.998 63.293 13.726 62.117 13.726C60.955 13.726 60.185 12.998 60.185 11.584V7.286H58.603V11.822C58.603 13.978 59.975 15.112 61.781 15.112C62.691 15.112 63.559 14.734 64.063 14.076V15H65.659V7.286ZM69.3608 10.94C69.3608 9.302 70.0888 8.812 71.2648 8.812H71.6708V7.16C70.5788 7.16 69.8088 7.636 69.3608 8.406V7.286H67.7648V15H69.3608V10.94Z" fill="#130F26"/>
<g clip-path="url(#clip0_1_1222)">
<path d="M6.52334 9.16664H16.6667V10.8333H6.52334L10.9933 15.3033L9.81501 16.4816L3.33334 9.99998L9.81501 3.51831L10.9933 4.69664L6.52334 9.16664Z" fill="#2D3436"/>
</g>
<defs>
<clipPath id="clip0_1_1222">
<rect width="20" height="20" fill="white"/>
</clipPath>
</defs>
</svg>
